<svg xmlns="http://www.w3.org/2000/svg" width="137.923" height="107.282" viewBox="0 0 137.923 107.282">
  <g id="Group_575" data-name="Group 575" transform="translate(-1750.806 -374.155)">
    <path id="Path_10509" data-name="Path 10509" d="M1895.3,539.875c.051-.029.1-.056.155-.083l-.165-.2C1895.26,539.558,1895.283,539.474,1895.3,539.875Z" transform="translate(-90.195 -103.265)" fill="#fff"/>
    <path id="Path_10510" data-name="Path 10510" d="M1932.979,544.832l-2.31-1.254a.157.157,0,0,1-.205-.071c-.937-.781-1.894-1.538-2.8-2.347-1.627-1.445-3.165-3-4.855-4.362a3.262,3.262,0,0,0-4.3-.023c-1.006.732-2.1,1.347-3.153,2.01a4.961,4.961,0,0,1-4.767.292,10.211,10.211,0,0,0-4.861-.045,19.1,19.1,0,0,0-3.8,1.438l-6.292,3.07a31.231,31.231,0,0,1-11.239,4.193l8.5-4.647,1.9-1.487.629-.521.731-.668a.384.384,0,0,1,.125-.309l.326-.444.033.035.01-1.842-.466-.54-.6-.6a.239.239,0,0,1-.118-.2l-.565-.549-.249-.52-.354-.577a.135.135,0,0,1-.04-.2q.014-.919.026-1.839a.3.3,0,0,1,.084-.254l.224-.536.2-.574q-.044-1.856-.089-3.712l-.331-.312a.342.342,0,0,1-.185-.021.342.342,0,0,0,.185.021l-.327-.141-.746-.048c-3.947,3.006-7.933,5.963-11.83,9.032-4.384,3.453-8.687,7.007-13.026,10.517l0,0c-2.969,1.7-5.927,3.42-8.917,5.081a12.759,12.759,0,0,1-2.1.738c.347.174.7.505,1.041.5,10.092-.178,19.923-2.2,29.769-4.176,4.265-.854,8.592-1.4,12.888-2.1.6-.1,1.182-.276,1.772-.417l1.664-.267.757-.053a68.857,68.857,0,0,1,18.043-.4c2.422.341,4.842.694,7.266,1.015.725.1,1.462.1,2.193.146l.247-.765q-.018-.556-.035-1.112Zm-58.65,1.277a2.233,2.233,0,0,1-.117.24h0A2.225,2.225,0,0,0,1874.329,546.109Zm-.294-.206h0a2.174,2.174,0,0,0-.118.24A2.174,2.174,0,0,1,1874.035,545.9Zm-3.675.583,1.874-1.13.552.954-.552-.954-1.874,1.13-1.932.318h0Zm-1.881,3.383h0c.086.118.174.289.261.429C1868.653,550.159,1868.565,549.988,1868.479,549.87Z" transform="translate(-66.556 -95.578)" fill="#fff"/>
    <path id="Path_10511" data-name="Path 10511" d="M1909.689,620.112c-2.829.107-5.664.089-8.5.117-15.526,1.582-30.784,5.461-46.482,5.514-4.05.014-8.1-.433-12.154-.668L1829,622.812l-1.482-.292c.676,1.649,2.309,1.728,3.617,1.853-1.308-.124-2.941-.2-3.617-1.852l-1.128-.167h0l-.874,1.046q.034.832.069,1.662.155,2.361.309,4.723.055,1.777.111,3.553l.77.681.763-.053.177.026.16-.08,1.252-.09,9.247-.234,1.155-.183,1.524-.813.317-.4q.4-.571.805-1.141l.434-.63h0l.7-.834,1.267-1.023h0l1.353-.1,2.594-.136,3.014-.232,1.476-.05.033-.048,1.513-.057c.748.017,1.5.056,2.244.049q16.978-.168,33.956-.338c3.21-.027,3.677.4,4.306,3.548a4.67,4.67,0,0,1,.134,1.3c-.159,1.771.841,2.091,2.323,2.049,3.558-.1,7.119-.093,10.677-.218a9.3,9.3,0,0,0,2.248-.663q.565-3.754,1.132-7.507.055-.548.111-1.1l.323-1.509a1.781,1.781,0,0,0-.29.019l.065-.79q.073-.391.146-.782.05-.536.1-1.073-.061-.725-.122-1.451l-.043-.036,0-.019v-.008h0A8.641,8.641,0,0,1,1909.689,620.112Zm-67.918,10.261c.26-.142.541-.269.788-.422v0h0C1842.311,630.1,1842.031,630.231,1841.77,630.374Zm1.579-1.5-.137.614.137-.615.7-.45Z" transform="translate(-46.645 -153.126)" fill="#fff"/>
    <path id="Path_10512" data-name="Path 10512" d="M1824.2,570.943c.045-.81,0-1.99-.5-2.393a22.178,22.178,0,0,0-3.829-2.091q.434,5.235.869,10.471l2.849-.076C1823.805,574.885,1824.089,572.919,1824.2,570.943Z" transform="translate(-43.12 -120.058)" fill="#fff"/>
    <path id="Path_10513" data-name="Path 10513" d="M1751.172,513.17c.874-.081,1.747-.19,2.624-.238,1.138-.063,2.28-.079,3.42-.114-.052-.979-.075-1.96-.167-2.935a15.875,15.875,0,0,0-.329-1.668l1.973.281v-3.2l-7.886,7.176Z" transform="translate(0 -81.872)" fill="#fff"/>
    <path id="Path_10514" data-name="Path 10514" d="M1823.37,553.131c-.483-.81-.836-1.538-1.313-2.173-1.39-1.852-2.829-3.666-4.249-5.5q.314,3.116.629,6.233a8.114,8.114,0,0,1,1.669,1.036A2.331,2.331,0,0,0,1823.37,553.131Z" transform="translate(-41.831 -106.949)" fill="#fff"/>
    <path id="Path_10515" data-name="Path 10515" d="M1818.414,618.448l.126-.086-.178-.045Z" transform="translate(-42.176 -152.434)" fill="#fff"/>
    <path id="Path_10516" data-name="Path 10516" d="M1903.013,430.83q0-.378.006-.756l-.854-.906-1.1-1.091-.8-.776-2.189-2.231-2.29-2.291-1.467-1.445-.408-.471q.054-.948.109-1.9a1.839,1.839,0,0,0-1.772-2.266l-.875-.775-.827-.669-2.169-1.7-1.217-.925-1.069-.8-2.015-1.415c-.839-.733-1.724-1.422-2.507-2.211-1.128-1.138-2.013-2.587-3.293-3.491q-18.086-12.778-36.283-25.4c-1.331-.928-2.86-1.607-4.081-2.653-4.133-3.542-8.325-3.2-12.421.176-5.545,4.571-12.6,7.216-16.88,13.437-.955,1.388-2.8,2.15-4.211,3.24q-9.545,7.392-19.059,14.823c-.471.368-1.168,1.057-1.076,1.429.43,1.753-.949,2.3-1.875,3.087-1.993,1.7-4.091,3.277-6.087,4.975a26.893,26.893,0,0,0-2.211,2.391l1.042.868L1773.7,422.7c1.9-.55,4.008,1.909,5.086.627,1.142-1.358,1.031-3.611,1.6-5.384.154-.483.963-1.225,1.215-1.134,2.193.788,2.226-1.446,2.141-2.054-.227-1.631.855-1.969,1.776-2.393a1.858,1.858,0,0,1,2.648.957c.107.21.507.271.306.172.856-.766,1.4-1.636,2.108-1.8,1.143-.259,2.475-1.864,3.467-.037l1.249-2.056,1.439,2.155c.536-.208,1.371-.852,1.905-.659.72.259,1.208,1.162,1.724,1.713.513-.513,1.036-1.357,1.341-1.284a9.692,9.692,0,0,1,3.413,1.641c1.343-.245,2.693-.977,4.1.55a24.207,24.207,0,0,0,3.9,2.771c1.647-.2,1.768-.143,3.042,1.833l-1.367.607a5.048,5.048,0,0,0,.505.383,6.589,6.589,0,0,0,1.3.657,4.094,4.094,0,0,0,2.132.337c1.049-.364,1.529.027,1.573.884a38.745,38.745,0,0,1-.151,3.919c.73.244,1.768.55,2.769.949.309.122.745.506.734.753-.061,1.344-.2,2.669,1.114,3.571-.243.332-.421.829-.743.954a4.875,4.875,0,0,1-1.578.041c-.063,1.222.191,2.576-.291,3.576-.344.715-1.547,1.018-2.607,1.578q.887,1.066,1.783,2.126c-.879.341-2.045.437-2.583,1.068-1.573,1.847-3.569.123-5.209.871-1.751.8-3.453,2.09-5.266,2.271-2.284.228-3.508,1.777-5.052,2.9a4,4,0,0,0-1.571,2.76c.025,2.919.431,5.835.688,8.752l2.167-.854c10.319-6.012,19.045-14.106,28.236-21.594,2.172-1.769,4.469-3.384,6.708-5.07,2.015-1.13,3.915-.518,5.476.757,2.359,1.927,4.444,4.185,6.766,6.162,1.861,1.585,3.9,2.961,5.86,4.43.407.114.827.2,1.219.347a5.543,5.543,0,0,0,6.215-1.149c3.052-2.76,3.549-2.735,6.847-.269,1.94,1.45,3.852,2.937,5.776,4.408l2.113,1.715c.922,1.118,1.6.579,1.718-.468a22.58,22.58,0,0,0-.158-3.773c-.015.13-.028.26-.04.391.012-.131.025-.261.04-.391l.3-4.543q.031-.361.06-.722.143-1.136.286-2.272.047-.367.094-.733l.163-.743,3.894-1.867,2.257.256,2.285-.119.762-.072a39.711,39.711,0,0,0,4.363.689,12.652,12.652,0,0,0,2.876-.495.219.219,0,0,1,.236.171c.521.317,1.163,1,1.538.878a13.467,13.467,0,0,0,2.615-1.516l-.376-.558h0ZM1865,413.685a7.529,7.529,0,0,1-1.226-.217c-2.649-.923-5.251-2.007-7.942-2.779a11.379,11.379,0,0,0-11.049,2.382,6.413,6.413,0,0,1-1.766.74,7.285,7.285,0,0,1-.471-1.667c-.131-3.276-1.748-5.494-4.85-6.377-3.047-.868-6.181-1.43-9.276-2.133-.531-.121-1.053-.275-1.579-.414l.043-.5c4.926.672,10.02.1,14.757,2.134,2.584,1.112,3.234,2.56,2.7,5.41-.054.292-.054.593-.105,1.189a8.742,8.742,0,0,0,1.144-.934c2.1-2.55,4.819-3.207,7.932-2.545,4.312.918,7.96,3.289,11.832,5.169Z" transform="translate(-14.291 0)" fill="#fff"/>
    <path id="Path_10517" data-name="Path 10517" d="M1867.557,512.328l2.36-.982c-.135-.216-.211-.5-.389-.6-1.161-.626-1.61-2.8-3.582-1.676-.923-1.393-2.388-.8-3.634-.948a1.625,1.625,0,0,0-1.267.377,34.7,34.7,0,0,0-1.963,2.96C1861.994,511.1,1864.86,511.067,1867.557,512.328Z" transform="translate(-67.598 -83.633)" fill="#fff"/>
    <path id="Path_10518" data-name="Path 10518" d="M1844.491,553.038l6.477-4.924h0l1.317,1.1c1.356-1.1,3.936-.242,4.744-2.848l-4.075,1.522-.269.119.269-.119c-.043-.047-.089-.092-.136-.135-.441-2.173-1.538.371-2.187-.3l-1.181-1.24-1.052,1.854C1846.383,547.288,1844.147,549.84,1844.491,553.038Z" transform="translate(-58.467 -107.412)" fill="#fff"/>
    <path id="Path_10519" data-name="Path 10519" d="M1837.173,548.946c.209-2.995.391-5.607.578-8.3C1835.5,541.214,1835.1,546.418,1837.173,548.946Z" transform="translate(-53.076 -103.944)" fill="#fff"/>
    <path id="Path_10520" data-name="Path 10520" d="M1843.762,537.93l-.62.257q-.211,2.471-.421,4.941l.9.348a16.313,16.313,0,0,0,2.068-3.6C1845.818,539.452,1844.449,538.59,1843.762,537.93Z" transform="translate(-57.384 -102.247)" fill="#fff"/>
    <path id="Path_10521" data-name="Path 10521" d="M1806.564,499.467a14.308,14.308,0,0,1-.513-2.468l-2.021,2.529,4.011,2.22v-1.523l-.458.376A4.684,4.684,0,0,1,1806.564,499.467Z" transform="translate(-33.228 -76.694)" fill="#fff"/>
    <path id="Path_10522" data-name="Path 10522" d="M1798.475,492.217c-2.244-.68-2.448,1.331-3.562,2.028l2.059,1.735C1797.614,494.874,1795.833,492.722,1798.475,492.217Z" transform="translate(-27.536 -73.621)" fill="#fff"/>
    <path id="Path_10523" data-name="Path 10523" d="M1836.507,494.614c-.606.35-1.169.944-1.74.952-1.439.019-2.014.616-1.781,2.222a7.625,7.625,0,0,1,2.01-1.127C1836.361,496.4,1836.546,495.59,1836.507,494.614Z" transform="translate(-51.275 -75.204)" fill="#fff"/>
    <path id="Path_10524" data-name="Path 10524" d="M1828.867,525.7c.139-.482.227-.979.337-1.469-.549.15-1.327.125-1.6.484-.733.96-.889,1.949.806,2.151C1828.593,526.4,1828.763,526.058,1828.867,525.7Z" transform="translate(-47.619 -93.692)" fill="#fff"/>
    <path id="Path_10525" data-name="Path 10525" d="M1851.416,538.968a1.637,1.637,0,0,0-.133.237l.133.042.14-.239C1851.507,538.993,1851.426,538.954,1851.416,538.968Z" transform="translate(-62.729 -102.893)" fill="#fff"/>
    <path id="Path_10526" data-name="Path 10526" d="M1955.607,543.37q-.06-.64-.12-1.279-.013.92-.026,1.839C1955.51,543.742,1955.558,543.557,1955.607,543.37Z" transform="translate(-127.769 -104.845)" fill="#fff"/>
    <path id="Path_10527" data-name="Path 10527" d="M1900.906,577.723l-.443-.079-16.8.742-12.792,2.554h0l-3.133.7a.27.27,0,0,0-.254.044l-.373.048-.748.146q-.007.284-.013.568l2.638-.737.935-.006-.935.006-2.638.737c-1.164.252-2.324.525-3.49.761,1.167-.236,2.326-.509,3.49-.761l.013-.568-6.031,1.314-1.518.262c-1.6.5-3.185,1.112-4.8,1.564,1.613-.452,3.195-1.063,4.8-1.564-5.637.725-11.258,1.643-16.915,2.105-3.716.3-7.485-.052-11.231-.112l-7.955-.74v1.161l.157.347q2.729.023,5.459.05-2.729-.024-5.459-.05l.051.739h0q-.04.564-.08,1.128.17.564.342,1.129l.051.755.987,1.067-.987-1.067.614,2.189.8-.271a75.1,75.1,0,0,0,22.979-1.055l.691-.122c.426-.15.847-.316,1.271-.472a13.119,13.119,0,0,1,1.285-.415,13.119,13.119,0,0,0-1.285.415c-.424.156-.846.322-1.271.472.679-.086,1.368-.127,2.037-.266,5.563-1.155,11.12-2.339,16.684-3.492a77.749,77.749,0,0,1,22.71-1.6h0l.13.007s.125-.043.125-.045.149,0,.149,0l.034-.145,1.647.5,0-.031,0,.031,1.554.23,1.491.366a.146.146,0,0,1,0-.017l.395.282,2.613.5q3.723,1.2,7.446,2.41v0l.393.269,1.958.266-1.959-.266-1.039.242c.039.21.077.42.128.694l.086.467-.086-.467c-.051-.274-.089-.484-.128-.694l-1.117-.4-5.676-1.891c-10.859-2.431-21.589-1.168-32.345.906-8.824,1.7-17.681,3.348-26.6,4.4-4.714.558-9.584-.2-14.385-.365-.314.507-.881,1.024-.861,1.518.017.419.642.995,1.121,1.176a19.5,19.5,0,0,0,2.835.651l.73.081c0,.091.009.181.019.27l14.276,2,4.012.241.575.022c12.055.06,23.863-2.177,35.741-3.8,4.573-.624,9.2-.867,13.8-1.284l13.321-.142q.038-.2.077-.408.149-2.612.3-5.224.06-.929.119-1.858.017-.383.033-.766.126-2.1.252-4.19l.474-1.623-9.744-1.48Zm-24.035,10.744c.031-.022.062-.047.092-.073.092-.077.182-.166.274-.244-.092.078-.182.167-.274.244-.03.026-.061.05-.092.073-.329.031-.658.06-.987.089C1876.213,588.528,1876.542,588.5,1876.871,588.468Zm27.047-1.12h0l.759-.218Zm-14.273-2.637h0Zm-1.13-3.753c.123,0,.258.016.386.023-.128-.006-.263-.025-.386-.023Zm12.407,4.887h0Zm-15.783-6.02.712.943-.712-.943Zm-9.918,2.055a2.265,2.265,0,0,1-.365-.268A2.265,2.265,0,0,0,1875.221,581.88Zm.481.149h0Zm-3.064,1.2a2.382,2.382,0,0,1-.324-.009A2.382,2.382,0,0,0,1872.638,583.226Zm-1.781-1.524a3.325,3.325,0,0,0,.182.564,3.368,3.368,0,0,1-.182-.564Zm.6,1.17-.009-.009Zm-47.55,4.926a.9.9,0,0,0-.255-.364A.9.9,0,0,1,1823.909,587.8Zm48.079-2.709q-1.336.267-2.674.526,1.337-.26,2.674-.526l.381-.359h0Zm3.755-.378,7.136,0,.753-.743-.753.743Zm26.367-5.332a.834.834,0,0,1-.068.073h0A.834.834,0,0,0,1902.11,579.378Z" transform="translate(-44.89 -127.041)" fill="#fff"/>
    <path id="Path_10528" data-name="Path 10528" d="M1825.706,616.287l0-.007-.017.006Z" transform="translate(-46.749 -151.162)" fill="#fff"/>
  </g>
</svg>
